<?xml version="1.0" encoding="utf-8"?>
<svg version="1.1" xmlns="http://www.w3.org/2000/svg" xmlns:xlink="http://www.w3.org/1999/xlink" x="0px" y="0px"
	 viewBox="0 0 275 49" style="enable-background:new 0 0 275 49;" xml:space="preserve">
<style type="text/css">
	.st0{fill:#C8006D;}
	.st1{fill:#C8006D;stroke:#FFFFFF;stroke-width:2;stroke-miterlimit:10;}
</style>
<g id="Warstwa_2">
</g>
<g id="Warstwa_1">
	<path class="st0" d="M88.1,39L88,24.2l-7.2,12.1h-3.5l-7.2-11.7V39h-7.3V11h6.5l9.8,16.2L88.8,11h6.5l0.1,28H88.1z M111.5,39.4
		c-2.3,0-4.4-0.5-6.3-1.4c-1.9-1-3.3-2.3-4.4-4c-1-1.7-1.6-3.6-1.6-5.8c0-2.1,0.5-4.1,1.6-5.8c1.1-1.7,2.5-3,4.4-4
		c1.9-1,4-1.4,6.3-1.4s4.5,0.5,6.3,1.4c1.9,0.9,3.3,2.3,4.4,4c1,1.7,1.6,3.6,1.6,5.8s-0.5,4.1-1.6,5.8c-1,1.7-2.5,3-4.4,4
		C115.9,38.9,113.8,39.4,111.5,39.4z M111.5,33.3c1.3,0,2.4-0.5,3.3-1.4c0.9-0.9,1.3-2.2,1.3-3.8c0-1.6-0.4-2.9-1.3-3.8
		s-1.9-1.4-3.3-1.4s-2.4,0.5-3.3,1.4c-0.9,0.9-1.3,2.2-1.3,3.8c0,1.6,0.4,2.9,1.3,3.8C109.1,32.9,110.2,33.3,111.5,33.3z M141.4,17
		c2.7,0,4.9,0.8,6.5,2.4c1.7,1.6,2.5,4,2.5,7.2V39h-7.6V27.8c0-3-1.2-4.4-3.6-4.4c-1.3,0-2.4,0.4-3.2,1.3c-0.8,0.9-1.2,2.1-1.2,3.8
		V39h-7.6V17.3h7.2v2.4c0.9-0.9,1.9-1.5,3-2C138.7,17.2,140,17,141.4,17z M166.3,39.4c-2.3,0-4.4-0.5-6.3-1.4c-1.9-1-3.3-2.3-4.4-4
		c-1-1.7-1.6-3.6-1.6-5.8c0-2.1,0.5-4.1,1.6-5.8c1.1-1.7,2.5-3,4.4-4c1.9-1,4-1.4,6.3-1.4c2.3,0,4.5,0.5,6.3,1.4
		c1.9,0.9,3.3,2.3,4.4,4c1,1.7,1.6,3.6,1.6,5.8s-0.5,4.1-1.6,5.8c-1,1.7-2.5,3-4.4,4C170.7,38.9,168.6,39.4,166.3,39.4z M166.3,33.3
		c1.3,0,2.4-0.5,3.3-1.4c0.9-0.9,1.3-2.2,1.3-3.8c0-1.6-0.4-2.9-1.3-3.8c-0.9-0.9-1.9-1.4-3.3-1.4c-1.3,0-2.4,0.5-3.3,1.4
		c-0.9,0.9-1.3,2.2-1.3,3.8c0,1.6,0.4,2.9,1.3,3.8C163.9,32.9,165,33.3,166.3,33.3z M191.9,31.4l-2.2,2.3V39H182V9.3h7.6v15.6
		l7.8-7.6h9l-9,9.3l9.8,12.4H198L191.9,31.4z M209.4,17.3h7.6V39h-7.6V17.3z M213.2,14.9c-1.4,0-2.5-0.4-3.4-1.2
		c-0.9-0.8-1.3-1.7-1.3-2.9c0-1.1,0.4-2.1,1.3-2.9c0.9-0.8,2-1.2,3.4-1.2c1.4,0,2.5,0.4,3.4,1.1c0.9,0.7,1.3,1.7,1.3,2.8
		c0,1.2-0.4,2.2-1.3,3C215.7,14.5,214.6,14.9,213.2,14.9z M236.1,17c2.7,0,4.9,0.8,6.5,2.4c1.7,1.6,2.5,4,2.5,7.2V39h-7.6V27.8
		c0-3-1.2-4.4-3.6-4.4c-1.3,0-2.4,0.4-3.2,1.3c-0.8,0.9-1.2,2.1-1.2,3.8V39h-7.6V17.3h7.2v2.4c0.9-0.9,1.9-1.5,3-2
		C233.4,17.2,234.7,17,236.1,17z M261,39.4c-2.3,0-4.4-0.5-6.3-1.4c-1.9-1-3.3-2.3-4.4-4c-1-1.7-1.6-3.6-1.6-5.8
		c0-2.1,0.5-4.1,1.6-5.8c1.1-1.7,2.5-3,4.4-4c1.9-1,4-1.4,6.3-1.4c2.3,0,4.5,0.5,6.3,1.4c1.9,0.9,3.3,2.3,4.4,4
		c1,1.7,1.6,3.6,1.6,5.8s-0.5,4.1-1.6,5.8c-1,1.7-2.5,3-4.4,4C265.4,38.9,263.3,39.4,261,39.4z M261,33.3c1.3,0,2.4-0.5,3.3-1.4
		c0.9-0.9,1.3-2.2,1.3-3.8c0-1.6-0.4-2.9-1.3-3.8c-0.9-0.9-1.9-1.4-3.3-1.4c-1.3,0-2.4,0.5-3.3,1.4c-0.9,0.9-1.3,2.2-1.3,3.8
		c0,1.6,0.4,2.9,1.3,3.8C258.5,32.9,259.6,33.3,261,33.3z"/>
	<g>
		<g>
			<g>
				<path class="st1" d="M55.7,25c0-2.6-3.2-5-8.2-6.6c1.1-5.1,0.6-9.1-1.6-10.4c-0.5-0.3-1.2-0.5-1.8-0.4v1.8
					c0.4,0,0.7,0.1,0.9,0.2c1.1,0.6,1.6,3,1.2,6c-0.1,0.8-0.2,1.5-0.4,2.3c-1.7-0.4-3.4-0.7-5.1-0.9c-1-1.4-2.1-2.7-3.3-4
					c2.6-2.4,5-3.7,6.7-3.7V7.6c-2.2,0-5.1,1.6-8,4.3c-2.9-2.7-5.8-4.2-8-4.2v1.8c1.7,0,4.1,1.3,6.7,3.7c-1.1,1.2-2.2,2.5-3.3,4
					c-1.7,0.2-3.4,0.5-5.1,0.9c-0.2-0.8-0.3-1.5-0.4-2.3c-0.4-3,0.1-5.4,1.2-6c0.2-0.1,0.5-0.2,0.9-0.2V7.6c-0.7,0-1.3,0.1-1.8,0.4
					c-2.2,1.3-2.7,5.3-1.6,10.4c-5,1.5-8.2,4-8.2,6.6c0,2.6,3.2,5,8.2,6.6c-1.1,5.1-0.6,9.1,1.6,10.4c0.5,0.3,1.1,0.4,1.8,0.4
					c2.2,0,5.1-1.6,8-4.3c2.9,2.7,5.8,4.2,8,4.2c0.6,0,1.3-0.1,1.8-0.4c2.2-1.3,2.7-5.3,1.6-10.4C52.5,30.1,55.7,27.6,55.7,25z
					 M45.4,19.7c-0.3,1.1-0.7,2.1-1.1,3.1c-0.7-1.3-1.4-2.6-2.2-3.8C43.2,19.2,44.3,19.4,45.4,19.7L45.4,19.7z M41.7,28.2
					c-0.6,1-1.2,2.1-1.9,3c-2.4,0.2-4.8,0.2-7.2,0c-1.4-2-2.6-4-3.6-6.2c1-2.2,2.2-4.3,3.6-6.2c2.4-0.2,4.8-0.2,7.2,0
					c0.7,0.9,1.3,2,1.9,3c0.6,1,1.2,2.1,1.7,3.2C42.9,26.1,42.3,27.2,41.7,28.2z M44.3,27.2c0.4,1.1,0.8,2.1,1.1,3.2
					c-1,0.3-2.1,0.5-3.3,0.6C42.9,29.7,43.6,28.5,44.3,27.2z M36.2,35.7c-0.7-0.8-1.5-1.6-2.2-2.6c0.7,0,1.5,0.1,2.2,0.1
					c0.8,0,1.5,0,2.2-0.1C37.7,34,36.9,34.9,36.2,35.7z M30.3,31c-1.1-0.2-2.2-0.4-3.3-0.6c0.3-1,0.7-2.1,1.1-3.1
					c0.3,0.6,0.7,1.3,1,1.9C29.5,29.7,29.9,30.4,30.3,31z M36.2,14.4c0.7,0.8,1.5,1.6,2.2,2.6c-0.7,0-1.5-0.1-2.2-0.1
					c-0.8,0-1.5,0-2.2,0.1C34.7,16,35.4,15.1,36.2,14.4z M30.3,19.1c-0.8,1.2-1.5,2.5-2.2,3.8c-0.4-1-0.8-2.1-1.1-3.2
					C28,19.4,29.1,19.2,30.3,19.1z M23,29.1c-2.8-1.2-4.6-2.8-4.6-4s1.8-2.8,4.6-4c0.7-0.3,1.4-0.6,2.2-0.8c0.5,1.6,1.1,3.2,1.8,4.9
					c-0.7,1.6-1.3,3.2-1.8,4.8C24.5,29.6,23.8,29.4,23,29.1z M27.3,40.4c-1.1-0.6-1.6-3-1.2-6c0.1-0.7,0.2-1.5,0.4-2.3
					c1.6,0.4,3.3,0.7,5.1,0.9c1,1.4,2.1,2.7,3.3,4c-2.6,2.4-5,3.7-6.7,3.7C27.9,40.7,27.6,40.6,27.3,40.4L27.3,40.4z M46.2,34.4
					c0.4,3-0.1,5.4-1.2,6c-0.2,0.1-0.5,0.2-0.9,0.2c-1.7,0-4.1-1.3-6.7-3.7c1.2-1.2,2.3-2.6,3.3-4c1.7-0.2,3.4-0.5,5.1-0.9
					C46,32.9,46.2,33.6,46.2,34.4z M49.3,29.1c-0.7,0.3-1.4,0.6-2.2,0.8c-0.5-1.7-1.1-3.3-1.8-4.9c0.7-1.7,1.3-3.3,1.8-4.8
					c0.8,0.2,1.5,0.5,2.2,0.8c2.8,1.2,4.6,2.8,4.6,4C54,26.3,52.1,27.9,49.3,29.1z"/>
				<path class="st0" d="M36.2,28.7c2,0,3.6-1.6,3.6-3.6s-1.6-3.6-3.6-3.6l0,0c-2,0-3.6,1.6-3.6,3.6S34.2,28.7,36.2,28.7z"/>
			</g>
		</g>
	</g>
	<g>
		<g>
			<g>
				<path class="st0" d="M55.7,25c0-2.6-3.2-5-8.2-6.6c1.1-5.1,0.6-9.1-1.6-10.4c-0.5-0.3-1.2-0.5-1.8-0.4v1.8
					c0.4,0,0.7,0.1,0.9,0.2c1.1,0.6,1.6,3,1.2,6c-0.1,0.8-0.2,1.5-0.4,2.3c-1.7-0.4-3.4-0.7-5.1-0.9c-1-1.4-2.1-2.7-3.3-4
					c2.6-2.4,5-3.7,6.7-3.7V7.6c-2.2,0-5.1,1.6-8,4.3c-2.9-2.7-5.8-4.2-8-4.2v1.8c1.7,0,4.1,1.3,6.7,3.7c-1.1,1.2-2.2,2.5-3.3,4
					c-1.7,0.2-3.4,0.5-5.1,0.9c-0.2-0.8-0.3-1.5-0.4-2.3c-0.4-3,0.1-5.4,1.2-6c0.2-0.1,0.5-0.2,0.9-0.2V7.6c-0.7,0-1.3,0.1-1.8,0.4
					c-2.2,1.3-2.7,5.3-1.6,10.4c-5,1.5-8.2,4-8.2,6.6c0,2.6,3.2,5,8.2,6.6c-1.1,5.1-0.6,9.1,1.6,10.4c0.5,0.3,1.1,0.4,1.8,0.4
					c2.2,0,5.1-1.6,8-4.3c2.9,2.7,5.8,4.2,8,4.2c0.6,0,1.3-0.1,1.8-0.4c2.2-1.3,2.7-5.3,1.6-10.4C52.5,30.1,55.7,27.6,55.7,25z
					 M45.3,19.7c-0.3,1.1-0.7,2.1-1.1,3.1c-0.7-1.3-1.4-2.6-2.2-3.8C43.2,19.2,44.3,19.5,45.3,19.7L45.3,19.7z M41.7,28.2
					c-0.6,1-1.2,2.1-1.9,3c-2.4,0.2-4.8,0.2-7.2,0c-1.4-2-2.6-4-3.6-6.2c1-2.2,2.2-4.3,3.6-6.2c2.4-0.2,4.8-0.2,7.2,0
					c0.7,0.9,1.3,2,1.9,3c0.6,1,1.2,2.1,1.7,3.2C42.8,26.1,42.3,27.2,41.7,28.2z M44.3,27.2c0.4,1.1,0.8,2.1,1.1,3.2
					c-1,0.3-2.1,0.5-3.3,0.6C42.9,29.7,43.6,28.5,44.3,27.2z M36.2,35.7c-0.7-0.8-1.5-1.6-2.2-2.6c0.7,0,1.5,0.1,2.2,0.1
					c0.8,0,1.5,0,2.2-0.1C37.7,34.1,36.9,34.9,36.2,35.7z M30.3,31c-1.1-0.2-2.2-0.4-3.3-0.6c0.3-1,0.7-2.1,1.1-3.1
					c0.3,0.6,0.7,1.3,1,1.9C29.5,29.8,29.9,30.4,30.3,31z M36.1,14.4c0.7,0.8,1.5,1.6,2.2,2.6c-0.7,0-1.5-0.1-2.2-0.1
					c-0.8,0-1.5,0-2.2,0.1C34.7,16,35.4,15.1,36.1,14.4z M30.2,19.1c-0.8,1.2-1.5,2.5-2.2,3.8c-0.4-1-0.8-2.1-1.1-3.2
					C28,19.5,29.1,19.2,30.2,19.1z M23,29.1c-2.8-1.2-4.7-2.8-4.7-4s1.8-2.8,4.7-4c0.7-0.3,1.4-0.6,2.2-0.8c0.5,1.6,1.1,3.2,1.8,4.9
					c-0.7,1.6-1.3,3.2-1.8,4.8C24.5,29.6,23.8,29.4,23,29.1z M27.3,40.5c-1.1-0.6-1.6-3-1.2-6c0.1-0.8,0.2-1.5,0.4-2.3
					c1.6,0.4,3.3,0.7,5.1,0.9c1,1.4,2.1,2.7,3.3,4c-2.6,2.4-5,3.7-6.7,3.7C27.9,40.7,27.6,40.6,27.3,40.5L27.3,40.5z M46.2,34.4
					c0.4,3-0.1,5.4-1.2,6c-0.2,0.1-0.5,0.2-0.9,0.2c-1.7,0-4.1-1.3-6.7-3.7c1.2-1.2,2.3-2.6,3.3-4c1.7-0.2,3.4-0.5,5.1-0.9
					C46,32.9,46.1,33.6,46.2,34.4z M49.3,29.1c-0.7,0.3-1.4,0.6-2.2,0.8c-0.5-1.7-1.1-3.3-1.8-4.9c0.7-1.7,1.3-3.3,1.8-4.8
					c0.8,0.2,1.5,0.5,2.2,0.8c2.8,1.2,4.7,2.8,4.7,4C54,26.3,52.1,27.9,49.3,29.1z"/>
				<path class="st0" d="M36.2,28.7c2,0,3.6-1.6,3.6-3.6s-1.6-3.6-3.6-3.6l0,0c-2,0-3.6,1.6-3.6,3.6S34.1,28.7,36.2,28.7z"/>
			</g>
		</g>
	</g>
</g>
</svg>
